<svg xmlns="http://www.w3.org/2000/svg" width="1800" height="1200" viewBox="0 0 1800 1200" role="img" aria-labelledby="title desc">
  <title id="title">Promise Admin Mobile Jobs Tab Mockup</title>
  <desc id="desc">Three mobile screens for the Jobs tab: technician job queue, job detail bottom sheet, and status action confirmation. Status colors: new blue, in progress indigo, waiting parts amber, ready emerald/cyan, delivered slate, cancelled red. Primary action is blue and full width.</desc>
  <metadata>
    {
      "project": "Promise Electronics admin mobile redesign",
      "tab": "Jobs",
      "audience": "Technician and small-shop operator",
      "principles": ["one job equals one card", "one clear action", "customer and device auto-filled", "cards are spacious", "bottom sheets for details"],
      "primaryActions": {
        "Pending or Diagnosing": "Start Repair",
        "In Progress or On Workbench": "Mark Ready",
        "Pending Parts or Waiting on Parts": "Parts Arrived",
        "Ready": "Take Payment",
        "Completed": "Print and Deliver"
      }
    }
  </metadata>
  <defs>
    <filter id="phoneShadow" x="-20%" y="-20%" width="140%" height="140%">
      <feDropShadow dx="0" dy="26" stdDeviation="28" flood-color="#0f172a" flood-opacity="0.18"/>
    </filter>
    <filter id="cardShadow" x="-15%" y="-15%" width="130%" height="130%">
      <feDropShadow dx="0" dy="8" stdDeviation="10" flood-color="#0f172a" flood-opacity="0.08"/>
    </filter>
    <linearGradient id="pageBg" x1="0" y1="0" x2="1" y2="1">
      <stop offset="0" stop-color="#f8fafc"/>
      <stop offset="1" stop-color="#eef6ff"/>
    </linearGradient>
    <linearGradient id="darkHeader" x1="0" y1="0" x2="1" y2="1">
      <stop offset="0" stop-color="#0f172a"/>
      <stop offset="1" stop-color="#1e293b"/>
    </linearGradient>
    <linearGradient id="blueButton" x1="0" y1="0" x2="1" y2="1">
      <stop offset="0" stop-color="#2563eb"/>
      <stop offset="1" stop-color="#1d4ed8"/>
    </linearGradient>
    <style>
      .frame-title { font: 800 28px Inter, ui-sans-serif, system-ui, sans-serif; fill: #0f172a; letter-spacing: 0; }
      .frame-note { font: 600 14px Inter, ui-sans-serif, system-ui, sans-serif; fill: #64748b; letter-spacing: 0; }
      .phone-bg { fill: #f8fafc; }
      .top-title { font: 900 27px Inter, ui-sans-serif, system-ui, sans-serif; fill: #0f172a; letter-spacing: 0; }
      .small { font: 600 12px Inter, ui-sans-serif, system-ui, sans-serif; fill: #64748b; letter-spacing: 0; }
      .tiny-label { font: 800 9px Inter, ui-sans-serif, system-ui, sans-serif; fill: #94a3b8; letter-spacing: 1.5px; }
      .body { font: 700 14px Inter, ui-sans-serif, system-ui, sans-serif; fill: #334155; letter-spacing: 0; }
      .strong { font: 900 18px Inter, ui-sans-serif, system-ui, sans-serif; fill: #0f172a; letter-spacing: 0; }
      .mono { font: 800 13px "SFMono-Regular", Consolas, "Liberation Mono", monospace; fill: #1d4ed8; letter-spacing: 0; }
      .mono-dark { font: 800 13px "SFMono-Regular", Consolas, "Liberation Mono", monospace; fill: #0f172a; letter-spacing: 0; }
      .btn-text { font: 900 15px Inter, ui-sans-serif, system-ui, sans-serif; fill: #ffffff; letter-spacing: 0; }
      .btn-dark { font: 800 14px Inter, ui-sans-serif, system-ui, sans-serif; fill: #ffffff; letter-spacing: 0; }
      .chip { font: 800 12px Inter, ui-sans-serif, system-ui, sans-serif; letter-spacing: 0; }
      .nav { font: 800 10px Inter, ui-sans-serif, system-ui, sans-serif; fill: #64748b; letter-spacing: 0; }
      .nav-active { font: 900 10px Inter, ui-sans-serif, system-ui, sans-serif; fill: #2563eb; letter-spacing: 0; }
      .white-card { fill: #ffffff; stroke: #e2e8f0; stroke-width: 1; }
    </style>
  </defs>

  <rect width="1800" height="1200" fill="url(#pageBg)"/>
  <text x="90" y="86" class="frame-title">Jobs Tab Mobile UI: Technician Workbench</text>
  <text x="90" y="116" class="frame-note">Mobile-specific layout for shop-floor work: compact queue, bottom-sheet detail, and thumb-safe status actions.</text>

  <g transform="translate(90 165)">
    <text x="0" y="0" class="frame-title">1. Job Queue</text>
    <text x="0" y="27" class="frame-note">Glance, filter, act. The card action is the hero.</text>
  </g>
  <g transform="translate(650 165)">
    <text x="0" y="0" class="frame-title">2. Job Detail Sheet</text>
    <text x="0" y="27" class="frame-note">Bottom sheet, dark job identity, useful facts first.</text>
  </g>
  <g transform="translate(1210 165)">
    <text x="0" y="0" class="frame-title">3. Status Action</text>
    <text x="0" y="27" class="frame-note">Confirmation is simple. Optional proof stays optional.</text>
  </g>

  <!-- Phone 1: Queue -->
  <g transform="translate(90 220)" filter="url(#phoneShadow)">
    <rect x="0" y="0" width="420" height="870" rx="44" fill="#0f172a"/>
    <rect x="16" y="16" width="388" height="838" rx="34" class="phone-bg"/>
    <rect x="151" y="28" width="118" height="24" rx="12" fill="#0f172a"/>

    <g transform="translate(34 66)">
      <rect x="-18" y="-20" width="388" height="96" fill="#f8fafc" opacity="0.92"/>
      <text x="0" y="0" class="small">Tuesday, shop floor</text>
      <text x="0" y="33" class="top-title">Jobs</text>
      <rect x="288" y="7" width="58" height="38" rx="19" fill="#ffffff" stroke="#e2e8f0"/>
      <circle cx="314" cy="26" r="8" fill="none" stroke="#0f172a" stroke-width="2"/>
      <path d="M320 32 L328 40" stroke="#0f172a" stroke-width="2" stroke-linecap="round"/>
    </g>

    <g transform="translate(34 145)">
      <rect x="0" y="0" width="352" height="44" rx="22" fill="#eef2f7" stroke="#e2e8f0"/>
      <circle cx="24" cy="22" r="7" fill="none" stroke="#64748b" stroke-width="2"/>
      <path d="M29 27 L36 34" stroke="#64748b" stroke-width="2" stroke-linecap="round"/>
      <text x="50" y="27" class="small">Search ticket, phone, TV model</text>
    </g>

    <g transform="translate(34 207)">
      <rect x="0" y="0" width="68" height="34" rx="14" fill="#dbeafe" stroke="#bfdbfe"/>
      <text x="18" y="22" class="chip" fill="#1d4ed8">New</text>
      <rect x="76" y="0" width="92" height="34" rx="14" fill="#eef2ff" stroke="#c7d2fe"/>
      <text x="94" y="22" class="chip" fill="#4338ca">Repair</text>
      <rect x="176" y="0" width="90" height="34" rx="14" fill="#fffbeb" stroke="#fde68a"/>
      <text x="193" y="22" class="chip" fill="#b45309">Parts</text>
      <rect x="274" y="0" width="78" height="34" rx="14" fill="#ecfdf5" stroke="#a7f3d0"/>
      <text x="292" y="22" class="chip" fill="#047857">Ready</text>
    </g>

    <g transform="translate(34 262)" filter="url(#cardShadow)">
      <rect x="0" y="0" width="352" height="177" rx="20" class="white-card"/>
      <rect x="16" y="16" width="86" height="25" rx="10" fill="#dbeafe"/>
      <text x="29" y="33" class="mono">PTV-1042</text>
      <rect x="266" y="16" width="70" height="25" rx="10" fill="#dbeafe"/>
      <text x="284" y="33" class="chip" fill="#1d4ed8">NEW</text>
      <text x="16" y="65" class="tiny-label">CUSTOMER</text>
      <text x="16" y="88" class="strong">Rahman</text>
      <text x="252" y="87" class="mono-dark">01722...</text>
      <text x="16" y="113" class="tiny-label">DEVICE</text>
      <text x="16" y="136" class="body">Sony Bravia 43 inch</text>
      <text x="244" y="136" class="small">No display</text>
      <rect x="16" y="148" width="320" height="44" rx="13" fill="url(#blueButton)"/>
      <circle cx="91" cy="170" r="8" fill="#ffffff" opacity="0.92"/>
      <path d="M89 166 L96 170 L89 174 Z" fill="#2563eb"/>
      <text x="112" y="175" class="btn-text">Start Repair</text>
    </g>

    <g transform="translate(34 455)" filter="url(#cardShadow)">
      <rect x="0" y="0" width="352" height="165" rx="20" class="white-card"/>
      <rect x="16" y="16" width="86" height="25" rx="10" fill="#eef2ff"/>
      <text x="29" y="33" class="mono" fill="#4338ca">PTV-1038</text>
      <rect x="236" y="16" width="100" height="25" rx="10" fill="#eef2ff"/>
      <text x="253" y="33" class="chip" fill="#4338ca">REPAIRING</text>
      <text x="16" y="65" class="tiny-label">CUSTOMER</text>
      <text x="16" y="88" class="strong">Farhana</text>
      <text x="16" y="113" class="tiny-label">DEVICE</text>
      <text x="16" y="136" class="body">Samsung 55 inch</text>
      <text x="230" y="136" class="small">Backlight</text>
      <rect x="16" y="148" width="320" height="44" rx="13" fill="url(#blueButton)"/>
      <path d="M84 171 L94 181 L112 158" fill="none" stroke="#ffffff" stroke-width="4" stroke-linecap="round" stroke-linejoin="round"/>
      <text x="124" y="175" class="btn-text">Mark Ready</text>
    </g>

    <g transform="translate(34 636)" filter="url(#cardShadow)">
      <rect x="0" y="0" width="352" height="122" rx="20" class="white-card"/>
      <rect x="16" y="16" width="86" height="25" rx="10" fill="#fffbeb"/>
      <text x="29" y="33" class="mono" fill="#b45309">PTV-1032</text>
      <rect x="224" y="16" width="112" height="25" rx="10" fill="#fffbeb"/>
      <text x="239" y="33" class="chip" fill="#b45309">WAIT PARTS</text>
      <text x="16" y="68" class="strong">LG 32 inch</text>
      <text x="16" y="94" class="small">Power board pending</text>
      <rect x="212" y="62" width="124" height="44" rx="13" fill="#0f172a"/>
      <text x="232" y="90" class="btn-dark">Parts Arrived</text>
    </g>

    <g transform="translate(16 782)">
      <rect x="0" y="0" width="388" height="72" rx="0" fill="#ffffff" stroke="#e2e8f0"/>
      <rect x="42" y="12" width="48" height="34" rx="17" fill="#dbeafe"/>
      <circle cx="66" cy="27" r="9" fill="none" stroke="#2563eb" stroke-width="2"/>
      <path d="M58 37 H74" stroke="#2563eb" stroke-width="2" stroke-linecap="round"/>
      <text x="51" y="61" class="nav-active">Jobs</text>
      <text x="126" y="61" class="nav">POS</text>
      <text x="186" y="61" class="nav">Stock</text>
      <text x="252" y="61" class="nav">Finance</text>
      <text x="333" y="61" class="nav">More</text>
    </g>
  </g>

  <!-- Phone 2: Detail sheet -->
  <g transform="translate(650 220)" filter="url(#phoneShadow)">
    <rect x="0" y="0" width="420" height="870" rx="44" fill="#0f172a"/>
    <rect x="16" y="16" width="388" height="838" rx="34" class="phone-bg"/>
    <rect x="151" y="28" width="118" height="24" rx="12" fill="#0f172a"/>

    <g transform="translate(34 68)">
      <text x="0" y="0" class="small">Jobs / PTV-1042</text>
      <text x="0" y="34" class="top-title">Job Detail</text>
      <rect x="300" y="5" width="46" height="38" rx="19" fill="#ffffff" stroke="#e2e8f0"/>
      <path d="M316 18 L332 34 M332 18 L316 34" stroke="#0f172a" stroke-width="2.5" stroke-linecap="round"/>
    </g>

    <g transform="translate(16 163)">
      <rect x="0" y="0" width="388" height="691" rx="34" fill="#ffffff" stroke="#e2e8f0"/>
      <rect x="140" y="14" width="108" height="5" rx="3" fill="#cbd5e1"/>
      <rect x="0" y="32" width="388" height="172" rx="34" fill="url(#darkHeader)"/>
      <circle cx="327" cy="54" r="48" fill="#334155" opacity="0.34"/>
      <circle cx="353" cy="98" r="72" fill="#334155" opacity="0.18"/>
      <text x="26" y="75" font-family="Inter, ui-sans-serif, system-ui" font-size="12" font-weight="800" fill="#94a3b8" letter-spacing="1.5">JOB TICKET</text>
      <text x="26" y="113" font-family="SFMono-Regular, Consolas, monospace" font-size="30" font-weight="900" fill="#bfdbfe">PTV-1042</text>
      <rect x="26" y="132" width="88" height="28" rx="12" fill="#1e40af" opacity="0.82"/>
      <text x="44" y="151" class="chip" fill="#bfdbfe">NEW</text>
      <rect x="124" y="132" width="74" height="28" rx="12" fill="#7f1d1d" opacity="0.36"/>
      <text x="141" y="151" class="chip" fill="#fecaca">HIGH</text>
      <text x="250" y="155" font-family="SFMono-Regular, Consolas, monospace" font-size="13" font-weight="800" fill="#cbd5e1">BDT 1,200</text>
    </g>

    <g transform="translate(42 392)" filter="url(#cardShadow)">
      <rect x="0" y="0" width="336" height="92" rx="18" class="white-card"/>
      <text x="18" y="28" class="tiny-label">CUSTOMER</text>
      <text x="18" y="56" class="strong">Rahman Electronics</text>
      <text x="202" y="56" class="mono-dark">01722 111222</text>
      <rect x="18" y="66" width="78" height="18" rx="9" fill="#eef2ff"/>
      <text x="31" y="79" font-family="Inter, ui-sans-serif, system-ui" font-size="9" font-weight="800" fill="#4338ca">WALK-IN</text>
    </g>

    <g transform="translate(42 499)" filter="url(#cardShadow)">
      <rect x="0" y="0" width="336" height="110" rx="18" class="white-card"/>
      <text x="18" y="28" class="tiny-label">DEVICE</text>
      <text x="18" y="58" class="strong">Sony Bravia 43 inch</text>
      <text x="18" y="84" class="body">No display after voltage surge.</text>
      <rect x="240" y="18" width="76" height="32" rx="14" fill="#f8fafc" stroke="#e2e8f0"/>
      <text x="260" y="39" class="small">TV</text>
    </g>

    <g transform="translate(42 626)">
      <text x="0" y="0" class="tiny-label">WORKFLOW</text>
      <line x1="17" y1="31" x2="302" y2="31" stroke="#e2e8f0" stroke-width="4" stroke-linecap="round"/>
      <circle cx="18" cy="31" r="10" fill="#2563eb"/>
      <circle cx="112" cy="31" r="10" fill="#c7d2fe" stroke="#6366f1" stroke-width="3"/>
      <circle cx="207" cy="31" r="10" fill="#fef3c7" stroke="#f59e0b" stroke-width="3"/>
      <circle cx="302" cy="31" r="10" fill="#d1fae5" stroke="#10b981" stroke-width="3"/>
      <text x="0" y="63" class="small">New</text>
      <text x="82" y="63" class="small">Repair</text>
      <text x="180" y="63" class="small">Parts</text>
      <text x="280" y="63" class="small">Ready</text>
    </g>

    <g transform="translate(42 727)">
      <rect x="0" y="0" width="158" height="44" rx="13" fill="#ffffff" stroke="#e2e8f0"/>
      <text x="49" y="28" class="body">Call</text>
      <rect x="178" y="0" width="158" height="44" rx="13" fill="#ffffff" stroke="#e2e8f0"/>
      <text x="214" y="28" class="body">Add Photo</text>
      <rect x="0" y="56" width="336" height="50" rx="15" fill="url(#blueButton)"/>
      <circle cx="96" cy="81" r="8" fill="#ffffff"/>
      <path d="M94 77 L101 81 L94 85 Z" fill="#2563eb"/>
      <text x="118" y="86" class="btn-text">Start Repair</text>
    </g>
  </g>

  <!-- Phone 3: Action confirmation -->
  <g transform="translate(1210 220)" filter="url(#phoneShadow)">
    <rect x="0" y="0" width="420" height="870" rx="44" fill="#0f172a"/>
    <rect x="16" y="16" width="388" height="838" rx="34" class="phone-bg"/>
    <rect x="151" y="28" width="118" height="24" rx="12" fill="#0f172a"/>

    <g transform="translate(34 68)">
      <text x="0" y="0" class="small">Status action</text>
      <text x="0" y="34" class="top-title">Start Repair</text>
      <rect x="284" y="4" width="62" height="38" rx="19" fill="#dbeafe" stroke="#bfdbfe"/>
      <text x="303" y="28" class="chip" fill="#1d4ed8">PTV</text>
    </g>

    <g transform="translate(34 137)" filter="url(#cardShadow)">
      <rect x="0" y="0" width="352" height="118" rx="20" class="white-card"/>
      <rect x="18" y="18" width="54" height="54" rx="18" fill="#dbeafe"/>
      <path d="M39 34 L54 45 L39 56 Z" fill="#2563eb"/>
      <text x="88" y="35" class="mono-dark">PTV-1042</text>
      <text x="88" y="62" class="strong">Sony Bravia 43 inch</text>
      <text x="88" y="88" class="small">Rahman - No display</text>
      <rect x="234" y="18" width="100" height="27" rx="12" fill="#dbeafe"/>
      <text x="253" y="37" class="chip" fill="#1d4ed8">NEW</text>
    </g>

    <g transform="translate(34 280)" filter="url(#cardShadow)">
      <rect x="0" y="0" width="352" height="276" rx="22" fill="#ffffff" stroke="#e2e8f0"/>
      <text x="20" y="32" class="tiny-label">BEFORE STARTING</text>
      <g transform="translate(20 56)">
        <rect x="0" y="0" width="312" height="54" rx="16" fill="#f8fafc" stroke="#e2e8f0"/>
        <circle cx="26" cy="27" r="11" fill="#2563eb"/>
        <path d="M21 27 L25 31 L32 22" fill="none" stroke="#ffffff" stroke-width="2.6" stroke-linecap="round" stroke-linejoin="round"/>
        <text x="50" y="23" class="body">Technician assigned</text>
        <text x="50" y="41" class="small">Rafiq is responsible now</text>
      </g>
      <g transform="translate(20 122)">
        <rect x="0" y="0" width="312" height="54" rx="16" fill="#f8fafc" stroke="#e2e8f0"/>
        <circle cx="26" cy="27" r="11" fill="#2563eb"/>
        <path d="M21 27 L25 31 L32 22" fill="none" stroke="#ffffff" stroke-width="2.6" stroke-linecap="round" stroke-linejoin="round"/>
        <text x="50" y="23" class="body">Device already received</text>
        <text x="50" y="41" class="small">Custody is confirmed by request flow</text>
      </g>
      <g transform="translate(20 188)">
        <rect x="0" y="0" width="312" height="54" rx="16" fill="#ffffff" stroke="#e2e8f0"/>
        <circle cx="26" cy="27" r="11" fill="#e2e8f0"/>
        <text x="50" y="23" class="body">Add photo</text>
        <text x="50" y="41" class="small">Optional proof, not a blocker</text>
        <rect x="244" y="13" width="52" height="28" rx="12" fill="#eef2f7"/>
        <text x="255" y="32" class="chip" fill="#475569">Skip</text>
      </g>
    </g>

    <g transform="translate(34 581)" filter="url(#cardShadow)">
      <rect x="0" y="0" width="352" height="126" rx="22" fill="#eef2ff" stroke="#c7d2fe"/>
      <text x="20" y="34" class="tiny-label" fill="#6366f1">NEXT STATUS</text>
      <text x="20" y="69" font-family="Inter, ui-sans-serif, system-ui" font-size="25" font-weight="900" fill="#312e81">In Progress</text>
      <text x="20" y="98" class="small" fill="#4338ca">Customer portal will show: Device is in repair.</text>
      <circle cx="302" cy="62" r="26" fill="#6366f1"/>
      <path d="M292 62 L300 70 L315 53" fill="none" stroke="#ffffff" stroke-width="4" stroke-linecap="round" stroke-linejoin="round"/>
    </g>

    <g transform="translate(34 731)">
      <rect x="0" y="0" width="352" height="54" rx="16" fill="url(#blueButton)"/>
      <text x="104" y="34" class="btn-text">Confirm Start Repair</text>
      <rect x="0" y="66" width="352" height="46" rx="15" fill="#ffffff" stroke="#e2e8f0"/>
      <text x="153" y="95" class="body">Cancel</text>
    </g>
  </g>

  <g transform="translate(90 1125)">
    <rect x="0" y="-30" width="1540" height="50" rx="18" fill="#ffffff" stroke="#e2e8f0"/>
    <text x="22" y="2" class="small">Implementation cue: replace mobile Jobs table/grid-first behavior with these cards and sheets only on phone widths. Desktop remains unchanged.</text>
  </g>
</svg>
